<svg xmlns="http://www.w3.org/2000/svg" viewBox="0 0 50 50" width="45" height="45">
  <!-- Film Strip -->
  <rect x="10" y="10" width="30" height="30" fill="#FFF0E1" stroke="black" stroke-width="1.5"/>
  <line x1="10" y1="20" x2="40" y2="20" stroke="black" stroke-width="1"/>
  <line x1="10" y1="30" x2="40" y2="30" stroke="black" stroke-width="1"/>
  <!-- Holes -->
  <rect x="12" y="12" width="2" height="2" fill="black"/> <rect x="12" y="22" width="2" height="2" fill="black"/> <rect x="12" y="32" width="2" height="2" fill="black"/>
  <rect x="36" y="12" width="2" height="2" fill="black"/> <rect x="36" y="22" width="2" height="2" fill="black"/> <rect x="36" y="32" width="2" height="2" fill="black"/>
  <!-- Simple running stick figure in one frame -->
  <circle cx="25" cy="16" r="2" fill="#FF8C69"/>
  <line x1="25" y1="18" x2="25" y2="23" stroke="#FF8C69" stroke-width="1"/>
  <line x1="25" y1="20" x2="22" y2="18" stroke="#FF8C69" stroke-width="1"/>
  <line x1="25" y1="20" x2="28" y2="18" stroke="#FF8C69" stroke-width="1"/>
  <line x1="25" y1="23" x2="23" y2="26" stroke="#FF8C69" stroke-width="1"/>
  <line x1="25" y1="23" x2="27" y2="26" stroke="#FF8C69" stroke-width="1"/>
</svg>