<svg xmlns="http://www.w3.org/2000/svg" viewBox="0 0 50 50" width="45" height="45">
  <!-- Five Stars -->
  <path d="M10 25 L12 20 L14 25 L18 25.5 L14 28 L12 33 L10 28 L6 25.5 Z" fill="#FFFACD" stroke="black" stroke-width="1"/>
  <path d="M22 15 L24 10 L26 15 L30 15.5 L26 18 L24 23 L22 18 L18 15.5 Z" fill="#FFD1DC" stroke="black" stroke-width="1"/>
  <path d="M34 25 L36 20 L38 25 L42 25.5 L38 28 L36 33 L34 28 L30 25.5 Z" fill="#AEC6CF" stroke="black" stroke-width="1"/>
  <path d="M16 35 L18 30 L20 35 L24 35.5 L20 38 L18 43 L16 38 L12 35.5 Z" fill="#C1E1C1" stroke="black" stroke-width="1"/>
  <path d="M30 38 L32 33 L34 38 L38 38.5 L34 41 L32 46 L30 41 L26 38.5 Z" fill="#D8BFD8" stroke="black" stroke-width="1"/>
</svg>