<svg xmlns="http://www.w3.org/2000/svg" viewBox="0 0 50 50" width="45" height="45">
  <!-- Thought Bubble -->
  <path d="M10 10 C 5 10, 5 25, 15 25 C 15 30, 10 30, 10 35 C 15 35, 20 30, 25 30 H35 C45 30, 45 15, 35 10 Z" fill="#FFF0E1" stroke="black" stroke-width="1.5"/>
  <!-- Heart inside -->
  <path d="M25 15 C 22 13, 20 17, 20 20 C 20 24, 25 26, 25 26 C 25 26, 30 24, 30 20 C 30 17, 28 13, 25 15 Z" fill="#FFD1DC" stroke="black" stroke-width="1"/>
  <!-- Friendly face (dots for eyes, simple smile) -->
  <circle cx="22" cy="18" r="1" fill="black"/>
  <circle cx="28" cy="18" r="1" fill="black"/>
  <path d="M23 22 Q25 24 27 22" stroke="black" fill="none" stroke-width="0.5"/>
</svg>